<svg width="1089" height="756" viewBox="0 0 1089 756" fill="none" xmlns="http://www.w3.org/2000/svg">
<path d="M513.932 459.922C489.378 419.265 446.791 405.773 432.799 402.001C428.98 391.471 427.823 380.159 429.431 369.073C432.602 347.291 437.777 311.888 438.282 309.301L332.482 350.457L224.875 386.612C226.918 388.296 253.566 412.154 269.948 426.848C278.29 434.327 284.652 443.753 288.469 454.287C280.141 466.146 256.074 503.783 263.258 550.731C270.044 595.069 300.952 623.131 321.532 641.871C336.391 655.354 353.004 666.764 370.922 675.793C378.816 681.454 387.828 685.364 397.355 687.261C406.882 689.16 416.704 689 426.165 686.793C429.398 686.041 435.616 684.447 441.442 682.651C444.012 681.854 447.279 680.838 451.017 679.525L451.634 679.295L452.252 679.076C455.961 677.69 459.121 676.382 461.607 675.344C467.22 672.992 473.029 670.231 475.992 668.738C484.666 664.37 492.307 658.201 498.405 650.643C504.503 643.085 508.916 634.312 511.35 624.91C519.324 606.502 524.771 587.1 527.542 567.231C531.37 539.691 537.117 498.322 513.932 459.922Z" fill="#D6B49A"/>
<path d="M410.668 689.42C396.249 689.41 382.193 684.901 370.466 676.511C352.508 667.45 335.855 656.005 320.959 642.488C300.367 623.771 269.252 595.49 262.422 550.854C255.804 507.605 275.179 471.842 287.52 454.157C283.729 443.923 277.506 434.764 269.387 427.47C253.442 413.164 226.384 388.919 224.341 387.263C224.226 387.166 224.138 387.042 224.086 386.901C224.034 386.76 224.019 386.608 224.044 386.46C224.071 386.312 224.138 386.173 224.236 386.059C224.335 385.945 224.462 385.858 224.605 385.809L332.218 349.648L437.995 308.52C438.135 308.466 438.287 308.451 438.434 308.475C438.582 308.5 438.721 308.563 438.835 308.66C438.95 308.756 439.037 308.882 439.087 309.023C439.136 309.164 439.147 309.316 439.118 309.463C438.618 312.045 433.365 347.993 430.278 369.196C428.716 379.998 429.803 391.017 433.444 401.305C454.249 406.979 492.032 422.032 514.65 459.489C537.992 498.142 532.206 539.792 528.378 567.355C525.597 587.276 520.139 606.73 512.152 625.191C509.677 634.696 505.204 643.565 499.03 651.204C492.856 658.844 485.125 665.08 476.351 669.495C473.124 671.117 467.404 673.828 461.904 676.124C459.317 677.207 456.258 678.47 452.649 679.822L452.52 679.884L451.286 680.327L451.156 680.367C447.503 681.641 444.349 682.612 441.671 683.453C435.975 685.216 429.852 686.821 426.338 687.618C421.201 688.81 415.943 689.42 410.668 689.42ZM226.547 386.937C232.26 391.932 255.99 413.198 270.515 426.224C278.952 433.802 285.392 443.342 289.266 454C289.312 454.127 289.327 454.263 289.31 454.397C289.292 454.531 289.242 454.659 289.165 454.769C276.98 472.123 257.522 507.644 264.094 550.602C270.829 594.654 301.697 622.693 322.104 641.248C336.903 654.676 353.449 666.043 371.292 675.04L371.404 675.108C379.2 680.698 388.101 684.559 397.509 686.433C406.918 688.31 416.619 688.15 425.962 685.973C429.453 685.16 435.531 683.594 441.189 681.843C443.877 681.018 447.054 680.019 450.73 678.733L450.842 678.7L451.841 678.341L451.948 678.29C455.585 676.932 458.683 675.658 461.27 674.569C466.725 672.29 472.4 669.602 475.604 667.991C484.175 663.679 491.726 657.587 497.752 650.121C503.778 642.656 508.14 633.99 510.547 624.703C510.56 624.661 510.575 624.619 510.592 624.579C518.535 606.243 523.961 586.916 526.722 567.125C530.516 539.798 536.263 498.501 513.219 460.359C490.752 423.154 453.048 408.326 432.579 402.815C432.451 402.777 432.333 402.71 432.236 402.618C432.138 402.526 432.064 402.413 432.018 402.287C428.165 391.622 426.999 380.172 428.623 368.95C431.429 349.648 436.037 318.118 437.232 310.625L332.796 351.237L226.547 386.937Z" fill="black"/>
<path d="M337.379 364.026C396.314 342.68 441.439 318.057 438.169 309.028C434.899 299.999 384.472 309.984 325.537 331.33C266.602 352.675 221.477 377.299 224.747 386.328C228.017 395.356 278.445 385.371 337.379 364.026Z" fill="#020202"/>
<path d="M235.578 390.457C229.506 390.457 224.999 389.418 223.972 386.59C221.727 380.416 237.672 370.196 251.428 362.686C270.51 352.281 296.726 340.854 325.265 330.51C353.804 320.167 381.266 312.152 402.576 307.931C417.954 304.889 436.745 302.549 438.973 308.706C441.201 314.863 425.273 325.105 411.517 332.615C392.434 343.02 366.224 354.447 337.68 364.785C309.135 375.123 281.684 383.144 260.368 387.37C252.051 389.014 242.734 390.457 235.578 390.457ZM427.411 306.5C422.287 306.5 414.559 307.275 402.907 309.581C381.67 313.791 354.304 321.783 325.837 332.093C297.371 342.403 271.234 353.796 252.225 364.162C225.42 378.788 225.027 384.592 225.543 386.017C226.06 387.443 230.078 391.63 260.032 385.714C281.263 381.51 308.635 373.513 337.096 363.203C365.557 352.893 391.699 341.505 410.703 331.133C437.502 316.507 437.895 310.71 437.379 309.278C437.076 308.425 435.454 306.5 427.411 306.5Z" fill="black"/>
<path d="M449.782 701.3L449.731 747.78C449.731 751.25 453.469 754.08 458.083 754.08H458.251C462.865 754.08 466.614 751.27 466.614 747.79L466.664 701.83C466.664 701.53 462.764 701.27 458.027 701.27H449.782" fill="#818181"/>
<path d="M458.246 754.92H458.066C453.015 754.92 448.873 751.71 448.873 747.78L448.924 700.45H458.01C460.311 700.45 462.5 700.51 464.184 700.61C466.496 700.76 467.518 700.86 467.518 701.83L467.467 747.8C467.437 748.82 467.168 749.81 466.68 750.7C466.192 751.59 465.5 752.35 464.661 752.92C462.793 754.26 460.543 754.96 458.246 754.92ZM450.607 702.17L450.557 747.81C450.557 750.81 453.924 753.26 458.066 753.27H458.246C460.178 753.3 462.07 752.71 463.639 751.58C464.264 751.16 464.782 750.6 465.149 749.95C465.517 749.29 465.725 748.56 465.755 747.81L465.806 702.46C463.232 702.21 460.646 702.11 458.061 702.14H450.607V702.17Z" fill="#191818"/>
<path d="M893.16 701.3L893.11 747.78C893.11 751.25 896.85 754.08 901.46 754.08H901.63C906.25 754.08 910 751.27 910 747.79L910.05 701.83C910.05 701.53 906.12 701.27 901.41 701.27H893.16" fill="#818181"/>
<path d="M901.63 754.92H901.45C896.4 754.92 892.25 751.71 892.25 747.78L892.31 700.45H901.39C903.72 700.45 905.88 700.51 907.54 700.61C909.85 700.76 910.87 700.86 910.87 701.83L910.82 747.8C910.79 748.82 910.52 749.81 910.03 750.7C909.55 751.59 908.85 752.35 908.01 752.92C906.15 754.26 903.92 754.96 901.63 754.92ZM893.99 702.17L893.94 747.81C893.94 750.81 897.31 753.26 901.45 753.27H901.63C903.56 753.3 905.45 752.71 907.02 751.58C907.65 751.16 908.16 750.6 908.53 749.95C908.9 749.29 909.11 748.56 909.14 747.81L909.19 702.46C906.61 702.21 904.03 702.11 901.44 702.14H893.99V702.17Z" fill="#191818"/>
<path d="M936.1 689.79H335.428C333.828 689.79 332.293 690.43 331.162 691.56C330.03 692.69 329.395 694.22 329.395 695.82C329.395 697.42 330.03 698.96 331.162 700.09C332.293 701.22 333.828 701.86 335.428 701.86H930.21C931.01 701.86 931.8 701.7 932.55 701.38C933.29 701.07 933.96 700.61 934.52 700.04C935.08 699.46 935.52 698.78 935.82 698.03C936.11 697.29 936.25 696.49 936.23 695.68L936.1 689.79Z" fill="#DCDBDA"/>
<path d="M930.21 702.7H335.429C333.606 702.7 331.857 701.97 330.567 700.69C329.278 699.4 328.554 697.65 328.554 695.82C328.554 694 329.278 692.25 330.567 690.96C331.857 689.67 333.606 688.95 335.429 688.95H936.94L937.09 695.68C937.11 696.6 936.95 697.51 936.61 698.36C936.27 699.21 935.77 699.99 935.13 700.64C934.49 701.3 933.72 701.81 932.87 702.17C932.03 702.52 931.12 702.7 930.21 702.7ZM335.429 690.63C334.052 690.63 332.732 691.18 331.758 692.15C330.784 693.13 330.237 694.45 330.237 695.82C330.237 697.2 330.784 698.52 331.758 699.49C332.732 700.47 334.052 701.01 335.429 701.01H930.21C930.9 701.01 931.58 700.88 932.22 700.61C932.86 700.34 933.43 699.95 933.92 699.45C934.4 698.96 934.78 698.37 935.03 697.73C935.29 697.08 935.41 696.4 935.39 695.71L935.27 690.65L335.429 690.63Z" fill="black"/>
<path d="M305.397 376.056C305.397 376.056 283.721 458.839 287.336 493.518C289.491 514.217 288.818 548.52 287.897 572.878C287.613 580.547 284.342 587.801 278.783 593.091C273.224 598.382 265.817 601.289 258.143 601.194C250.47 601.099 243.137 598.008 237.711 592.581C232.285 587.155 229.196 579.822 229.101 572.148C228.95 559.801 227.541 550.406 228.821 543.413C236.493 501.426 224.74 500.758 231.672 462.448C232.858 458.302 234.085 454.132 235.354 449.938C241.987 428.049 249.256 407.704 256.961 387.859C265.234 387.078 274.472 384.62 284.423 382.398C292.073 380.692 299.071 378.143 305.397 376.056Z" fill="#4EA7F1"/>
<path d="M258.532 602.028C250.583 602 242.963 598.856 237.307 593.271C231.651 587.687 228.41 580.107 228.281 572.159C228.23 567.793 228.011 563.74 227.821 560.126C227.473 553.548 227.169 547.863 228.011 543.289C231.94 521.9 230.756 511.23 229.628 500.915C228.505 490.739 227.461 481.131 230.862 462.324V462.245C232.064 458.058 233.304 453.827 234.55 449.718C240.583 429.8 247.458 410.055 256.18 387.577L256.371 387.095L256.887 387.044C263.319 386.444 270.396 384.799 277.889 383.059C279.971 382.577 282.087 382.083 284.242 381.606C290.101 380.205 295.881 378.493 301.557 376.476C302.765 376.064 303.953 375.668 305.121 375.286L306.585 374.798L306.198 376.296C305.979 377.121 284.596 459.321 288.154 493.461C290.298 514.065 289.658 548.054 288.743 572.934C288.472 580.757 285.168 588.168 279.529 593.599C273.89 599.029 266.36 602.052 258.532 602.028ZM232.513 462.638C229.145 481.159 230.2 490.661 231.3 500.707C232.423 511.141 233.624 521.933 229.667 543.564C228.864 547.969 229.162 553.565 229.504 560.036C229.695 563.645 229.914 567.736 229.964 572.137C230.06 579.588 233.063 586.707 238.333 591.976C243.604 597.244 250.724 600.245 258.176 600.337C265.627 600.429 272.82 597.606 278.219 592.47C283.618 587.333 286.797 580.291 287.077 572.844C287.991 548.014 288.631 514.115 286.515 493.607C283.198 461.74 301.321 388.728 304.223 377.34L302.107 378.019C296.375 380.055 290.54 381.782 284.624 383.194C282.48 383.677 280.366 384.161 278.282 384.648C270.935 386.331 263.981 387.97 257.578 388.621C248.957 410.852 242.155 430.423 236.183 450.156C234.937 454.287 233.702 458.474 232.513 462.638Z" fill="black"/>
<path d="M315.516 552.774C310.51 552.774 306.845 545.517 305.414 542.671C295.541 523.123 310.465 489.022 316.257 476.916C321.791 489.376 335.519 523.196 325.652 542.671C324.159 545.562 320.506 552.774 315.516 552.774Z" fill="#4EA7F1"/>
<path d="M315.516 553.616C309.988 553.616 306.245 546.202 304.651 543.036C295.323 524.571 307.457 493.445 315.477 476.54L316.263 474.856L317.009 476.54C324.524 493.45 335.732 524.566 326.382 543.019C324.782 546.202 321.028 553.616 315.516 553.616ZM316.207 478.931C308.349 495.875 297.439 525.037 306.144 542.279C307.479 544.916 311.021 551.932 315.511 551.932C320.001 551.932 323.537 544.916 324.878 542.279C333.605 525.032 323.57 495.881 316.207 478.931Z" fill="black"/>
<path d="M986.77 465.573C924.61 411.789 847.58 423.744 836.47 425.652C729.54 442.719 643.06 481.776 629.82 531.329C627.1 541.56 624.9 551.925 623.25 562.382C596.788 557.892 552.371 555.692 526.503 583.833L526.374 583.979C519.028 592.016 524.18 605.003 535.012 606.131C541.5 606.804 549.295 607.456 558.085 607.882C576.331 608.769 615.382 637.067 639.84 655.874C655.09 673.3 676.62 683.98 699.73 685.581H700.1C706.88 690.13 724.79 700.8 749.58 700.41C762.66 700.19 775.51 696.98 787.16 691.02L877.17 689.79C918.83 701.88 952.29 700.62 972.68 698.07C1001.98 694.4 1012.98 687.085 1017.91 683.038C1034.91 669.007 1041.1 647.152 1045.48 625.269C1054.47 580.308 1039.99 511.629 986.77 465.573Z" fill="#F8F3ED"/>
<path d="M748.31 701.3C725.64 701.3 708.35 692.11 699.86 686.457H699.67C676.37 684.843 654.65 674.082 639.26 656.52C598.848 625.478 571.516 609.376 558.046 608.753C550.245 608.371 542.466 607.782 534.923 606.996C532.285 606.727 529.775 605.727 527.675 604.109C525.575 602.491 523.968 600.319 523.036 597.837C522.084 595.425 521.834 592.792 522.314 590.244C522.795 587.695 523.987 585.335 525.752 583.435L525.881 583.295C537.46 570.701 553.826 562.888 574.541 560.059C592.433 557.618 610.376 559.425 622.555 561.44C624.19 551.236 626.34 541.12 629 531.133C635.38 507.269 659.11 484.6 697.64 465.58C734.05 447.62 782.01 433.516 836.34 424.839C844.33 423.47 865.8 420.624 892.57 423.913C929.17 428.403 961.04 442.226 987.32 464.957C1012.03 486.463 1030.35 514.361 1040.26 545.591C1049 572.873 1051.15 601.238 1046.31 625.45C1042.21 645.907 1036.35 668.963 1018.44 683.701C1009.27 691.24 994.34 696.22 972.78 698.92C941.65 702.82 909.44 700.04 877.06 690.65L787.36 691.88C775.65 697.82 762.74 701.03 749.6 701.27C749.17 701.3 748.73 701.3 748.31 701.3ZM700.32 684.762L700.56 684.908C708.98 690.52 726.54 699.97 749.57 699.6C762.52 699.36 775.24 696.18 786.78 690.3L786.95 690.21L877.31 688.98L877.43 689.01C909.64 698.36 941.66 701.13 972.6 697.26C993.83 694.61 1008.49 689.75 1017.4 682.416C1034.88 668.026 1040.65 645.301 1044.68 625.13C1053.58 580.652 1039.07 511.961 986.25 466.242C926.19 414.26 851.08 424.025 836.65 426.512C782.47 435.16 734.67 449.197 698.41 467.101C660.34 485.902 636.91 508.195 630.65 531.576C627.94 541.781 625.76 552.12 624.12 562.551L623.981 563.393L623.139 563.247C598.444 559.044 553.101 556.209 527.166 584.434L527.037 584.575C525.482 586.245 524.433 588.323 524.011 590.566C523.589 592.809 523.811 595.126 524.652 597.247C525.472 599.429 526.882 601.34 528.726 602.767C530.569 604.193 532.773 605.078 535.091 605.324C542.606 606.104 550.351 606.693 558.102 607.069C571.931 607.743 599.595 623.946 640.32 655.235L640.45 655.347C655.55 672.597 676.85 683.175 699.72 684.773L700.32 684.762Z" fill="black"/>
<path d="M622.645 561.546C617.38 546.084 609.366 516.77 608.681 489.062C608.174 468.48 610.544 447.929 615.725 428.004C600.991 397.729 594.668 364.051 597.417 330.494C597.561 328.865 598.12 327.299 599.041 325.947C599.961 324.596 601.213 323.502 602.676 322.77C604.138 322.039 605.764 321.694 607.398 321.769C609.032 321.844 610.619 322.336 612.009 323.198L686.15 369.281C713.74 361.785 742.72 360.981 770.69 366.935L837.93 311.933C838.99 311.069 840.25 310.499 841.6 310.283C842.94 310.067 844.32 310.212 845.6 310.703C846.87 311.195 847.99 312.015 848.84 313.08C849.69 314.145 850.24 315.417 850.44 316.766C855.91 354.847 852.73 393.671 841.14 430.356C846.3 446.141 847.67 462.917 845.15 479.33" fill="#F8F3ED"/>
<path d="M621.848 561.815C618.761 552.751 608.625 520.715 607.817 489.084C607.307 468.528 609.661 448.001 614.81 428.093C600.108 397.757 593.806 364.035 596.559 330.437C596.693 328.664 597.285 326.955 598.278 325.48C599.271 324.004 600.63 322.811 602.222 322.018C603.822 321.205 605.606 320.819 607.4 320.898C609.194 320.978 610.937 321.52 612.459 322.473L686.29 368.366C713.78 360.96 742.62 360.156 770.48 366.02L837.41 311.259C838.57 310.299 839.98 309.667 841.47 309.427C842.97 309.186 844.5 309.348 845.91 309.893C847.32 310.439 848.56 311.35 849.5 312.533C850.45 313.715 851.06 315.128 851.28 316.625C856.76 354.742 853.6 393.603 842.03 430.333C847.15 446.17 848.5 462.986 845.96 479.436L844.27 479.178C846.77 462.896 845.41 446.255 840.3 430.597L840.21 430.338L840.3 430.08C851.85 393.515 855.02 354.817 849.56 316.861C849.38 315.66 848.89 314.528 848.13 313.58C847.37 312.633 846.38 311.903 845.24 311.466C844.11 311.029 842.88 310.9 841.68 311.093C840.49 311.285 839.36 311.792 838.42 312.562L770.86 367.838L770.47 367.754C742.64 361.827 713.79 362.627 686.32 370.089L685.97 370.184L611.521 323.904C610.244 323.105 608.781 322.65 607.275 322.583C605.77 322.516 604.272 322.84 602.929 323.523C601.6 324.184 600.464 325.179 599.633 326.409C598.802 327.639 598.304 329.064 598.186 330.544C595.442 363.957 601.737 397.494 616.41 427.639L616.545 427.919L616.466 428.223C611.304 448.07 608.942 468.543 609.45 489.044C610.231 520.44 620.299 552.274 623.369 561.282L621.848 561.815Z" fill="black"/>
<path d="M238.917 661.166H238.754C238.754 661.166 233.984 661.105 229.527 656.828C226.019 653.461 229.05 638.627 239.63 621.425C248.666 638.902 250.899 653.489 247.577 656.828C243.311 661.144 238.917 661.166 238.917 661.166Z" fill="#4EA7F1"/>
<path d="M238.923 662.008H238.754C238.541 662.008 233.596 661.89 228.955 657.44C224.628 653.292 229.106 636.937 238.934 620.959L239.714 619.69L240.399 621.015C248.817 637.33 252.258 653.309 248.2 657.4C243.738 661.89 239.153 661.986 238.934 661.986L238.923 662.008ZM239.574 623.148C229.247 640.406 227.372 653.595 230.105 656.222C234.275 660.223 238.715 660.324 238.76 660.324H238.911C238.996 660.324 243.059 660.201 246.993 656.239C249.597 653.59 248.396 640.737 239.574 623.148Z" fill="black"/>
<path d="M1047.79 596.624C1056.1 600.452 1069.25 608.079 1078.09 622.441C1098.53 655.639 1083.3 704.25 1054.88 729.82C1034.24 748.39 1010.49 751.31 991.8 753.72C980.84 755.12 930.06 761.45 895.19 729.82C888.13 723.43 871.61 708.43 874.05 689.9C875.31 680.362 881.79 667.627 892.83 664.085C914 657.272 926.67 692.24 966.41 696.54C972.13 697.16 996.65 699.11 1015.8 683.634C1018.93 681.097 1024.11 676.337 1030.39 665.674C1036.84 654.713 1047.75 631.994 1047.79 596.624Z" fill="#333333"/>
<path d="M969.82 756C939.3 756 913.1 747.21 894.61 730.45C887.46 723.96 870.7 708.76 873.21 689.79C874.6 679.261 881.7 666.779 892.57 663.266C903.23 659.837 911.53 666.358 922.06 674.603C932.81 683.022 946.2 693.49 966.49 695.69C975.25 696.64 997.54 697.29 1015.26 682.96C1018.5 680.345 1023.51 675.664 1029.66 665.23C1040.93 646.097 1046.91 622.374 1046.94 596.624V595.311L1048.14 595.872C1061.6 602.09 1071.95 610.885 1078.81 622.009C1088.44 637.651 1090.86 657.962 1085.62 679.2C1080.77 698.88 1069.77 717.56 1055.43 730.46C1034.77 749.05 1011.25 752.07 992.35 754.5L991.9 754.56C984.58 755.51 977.2 755.99 969.82 756ZM898.25 664.04C896.5 664.044 894.76 664.324 893.09 664.871C882.89 668.154 876.21 680.025 874.88 690.01C872.49 708.1 888.79 722.89 895.75 729.2C918.2 749.54 952.25 757.95 991.72 752.88L992.17 752.82C1010.84 750.42 1034.07 747.44 1054.34 729.2C1081.84 704.44 1097.69 655.818 1077.4 622.884C1070.93 612.372 1061.26 603.987 1048.65 597.948C1048.42 623.491 1042.38 647.024 1031.14 666.083C1024.85 676.747 1019.69 681.574 1016.35 684.273C998.14 699 975.31 698.3 966.35 697.36C945.58 695.12 931.97 684.453 921.06 675.933C912.73 669.423 905.85 664.04 898.25 664.04Z" fill="#191818"/>
<path d="M787.37 691.75C787.18 691.75 786.99 691.69 786.84 691.57C786.69 691.45 786.59 691.28 786.55 691.09C786.51 690.91 786.53 690.71 786.62 690.54C786.7 690.37 786.84 690.23 787.02 690.15C787.4 689.97 825.48 671.943 834.26 637.954C834.28 637.842 834.33 637.735 834.39 637.641C834.46 637.547 834.54 637.467 834.64 637.406C834.74 637.345 834.85 637.305 834.96 637.287C835.07 637.27 835.19 637.275 835.3 637.304C835.41 637.333 835.51 637.384 835.6 637.454C835.69 637.524 835.77 637.612 835.82 637.712C835.88 637.812 835.91 637.923 835.92 638.037C835.94 638.151 835.92 638.266 835.89 638.375C831.2 656.565 818.34 670.096 808.39 678.223C802.03 683.467 795.1 687.976 787.72 691.66C787.61 691.72 787.49 691.75 787.37 691.75Z" fill="#191818"/>
<path d="M770.72 366.946L837.96 311.944C839.01 311.079 840.28 310.51 841.63 310.294C842.97 310.078 844.35 310.223 845.62 310.714C846.9 311.205 848.01 312.025 848.87 313.09C849.72 314.156 850.27 315.427 850.47 316.776C852.29 329.449 852.79 342.291 852.91 362.237C853.04 382.184 846.02 400.469 841.25 430.496C824.72 402.658 800.12 380.497 770.72 366.946Z" fill="#333333"/>
<path d="M841.71 432.92L840.52 430.928C824.08 403.236 799.62 381.191 770.37 367.709L769.15 367.148L837.43 311.276C838.6 310.316 840 309.683 841.5 309.443C842.99 309.203 844.52 309.364 845.93 309.91C847.35 310.456 848.59 311.367 849.53 312.549C850.47 313.732 851.09 315.144 851.31 316.642C853.2 329.859 853.64 343.368 853.76 362.243C853.84 374.461 851.21 386.253 848.15 399.896C846.17 408.775 843.93 418.838 842.06 430.63L841.71 432.92ZM772.29 366.749C800.6 380.092 824.4 401.418 840.76 428.104C842.56 417.233 844.65 407.866 846.5 399.532C849.64 385.428 852.11 374.276 852.05 362.254C851.93 343.452 851.48 329.999 849.61 316.877C849.43 315.677 848.94 314.545 848.18 313.597C847.42 312.649 846.42 311.92 845.29 311.483C844.16 311.046 842.93 310.917 841.73 311.109C840.53 311.302 839.41 311.809 838.47 312.578L772.29 366.749Z" fill="#191818"/>
<path d="M702.06 687.265C701.85 687.266 701.66 687.192 701.5 687.057C699.93 685.687 696.26 681.916 696.18 676.517C696.11 671.763 698.83 668.457 699.72 667.368C704.27 661.829 710.98 661.324 718.77 660.735C723.16 660.403 728.14 660.027 733.27 658.669C742.31 656.278 750.87 651.064 758.71 643.173C758.87 643.025 759.08 642.944 759.3 642.947C759.51 642.951 759.72 643.04 759.88 643.194C760.03 643.348 760.12 643.556 760.12 643.774C760.13 643.992 760.05 644.204 759.9 644.363C751.85 652.467 743.06 657.833 733.7 660.297C728.42 661.694 723.36 662.076 718.9 662.413C711.19 662.974 705.11 663.457 701.02 668.435C700.23 669.406 697.81 672.364 697.86 676.494C697.93 681.209 701.23 684.565 702.61 685.788C702.78 685.936 702.88 686.144 702.89 686.367C702.91 686.59 702.84 686.81 702.69 686.978C702.61 687.068 702.51 687.14 702.41 687.189C702.3 687.239 702.18 687.264 702.06 687.265Z" fill="#191818"/>
<path d="M726.76 515.244C774.18 515.244 812.63 485.845 812.63 449.579C812.63 413.313 774.18 383.913 726.76 383.913C679.33 383.913 640.88 413.313 640.88 449.579C640.88 485.845 679.33 515.244 726.76 515.244Z" fill="#333333"/>
<path d="M726.76 516.085C678.94 516.085 640.04 486.249 640.04 449.578C640.04 412.906 678.94 383.07 726.76 383.07C774.57 383.07 813.47 412.906 813.47 449.578C813.47 486.249 774.57 516.085 726.76 516.085ZM726.76 384.754C679.89 384.754 641.73 413.832 641.73 449.578C641.73 485.323 679.89 514.401 726.76 514.401C773.62 514.401 811.78 485.323 811.78 449.578C811.78 413.832 773.62 384.754 726.76 384.754Z" fill="#191818"/>
<path d="M672.03 463.048C681.8 463.048 689.71 455.133 689.71 445.369C689.71 435.605 681.8 427.689 672.03 427.689C662.27 427.689 654.36 435.605 654.36 445.369C654.36 455.133 662.27 463.048 672.03 463.048Z" fill="#F8F59C"/>
<path d="M672.03 463.89C668.37 463.89 664.79 462.803 661.74 460.768C658.7 458.733 656.33 455.841 654.92 452.456C653.52 449.072 653.15 445.348 653.87 441.755C654.58 438.163 656.35 434.863 658.94 432.272C661.53 429.682 664.83 427.918 668.42 427.204C672.01 426.489 675.74 426.856 679.12 428.257C682.51 429.659 685.4 432.033 687.43 435.079C689.47 438.125 690.56 441.706 690.56 445.369C690.56 450.281 688.6 454.992 685.13 458.465C681.66 461.938 676.95 463.89 672.03 463.89ZM672.03 428.531C668.7 428.531 665.45 429.519 662.68 431.369C659.91 433.219 657.75 435.849 656.48 438.925C655.2 442.002 654.87 445.387 655.52 448.653C656.17 451.92 657.77 454.92 660.13 457.274C662.48 459.629 665.48 461.233 668.75 461.882C672.02 462.532 675.4 462.199 678.48 460.924C681.55 459.65 684.18 457.492 686.03 454.723C687.88 451.954 688.87 448.699 688.87 445.369C688.87 440.903 687.1 436.621 683.94 433.463C680.78 430.305 676.5 428.531 672.03 428.531Z" fill="#191818"/>
<path d="M850.23 317.125C850.23 317.125 810.94 370.443 807.01 382.79C804.07 392.023 817.46 387.449 824.41 384.553C824.71 384.429 825.04 384.398 825.36 384.466C825.68 384.534 825.97 384.696 826.19 384.931C826.42 385.167 826.57 385.465 826.62 385.786C826.67 386.107 826.62 386.436 826.48 386.73L821.82 396.569C821.53 397.2 821.42 397.906 821.52 398.597C821.62 399.288 821.92 399.936 822.38 400.458C822.84 400.981 823.45 401.356 824.12 401.536C824.8 401.717 825.51 401.695 826.17 401.474L831.74 399.622C832.03 399.524 832.35 399.512 832.65 399.588C832.95 399.665 833.22 399.826 833.43 400.053C833.64 400.279 833.78 400.562 833.83 400.867C833.89 401.172 833.85 401.486 833.73 401.772L831.72 411.414L841.26 430.496C852.69 393.852 855.76 355.112 850.24 317.125H850.23Z" fill="#F3D2C9"/>
<path d="M841.43 432.741L830.82 411.526L832.95 401.424C833 401.286 833.02 401.136 833 400.989C832.97 400.843 832.9 400.707 832.8 400.599C832.7 400.49 832.57 400.412 832.42 400.375C832.28 400.339 832.13 400.344 831.99 400.391L826.43 402.249C825.61 402.524 824.72 402.551 823.89 402.328C823.05 402.105 822.3 401.641 821.73 400.994C821.16 400.347 820.79 399.545 820.67 398.69C820.55 397.834 820.68 396.962 821.05 396.182L825.71 386.343C825.78 386.202 825.8 386.043 825.78 385.889C825.75 385.734 825.68 385.591 825.57 385.479C825.47 385.365 825.33 385.286 825.17 385.254C825.02 385.222 824.86 385.238 824.72 385.299C815.3 389.228 809.3 390.115 806.89 387.915C805.66 386.792 805.43 384.962 806.21 382.51C810.14 370.162 847.94 318.781 849.55 316.597L850.77 314.947L851.06 316.973C856.61 355.084 853.54 393.953 842.08 430.721L841.43 432.741ZM832.59 411.302L841.06 428.24C851.74 392.967 854.69 355.805 849.68 319.291C843.02 328.417 811.27 372.188 807.82 383.043C807.25 384.822 807.32 386.051 808.03 386.702C809.8 388.324 815.8 387.23 824.07 383.773C824.53 383.583 825.04 383.538 825.52 383.641C826.01 383.744 826.45 383.992 826.79 384.351C827.13 384.711 827.36 385.165 827.44 385.655C827.52 386.144 827.45 386.647 827.23 387.095L822.58 396.928C822.35 397.41 822.27 397.948 822.34 398.476C822.42 399.004 822.64 399.498 823 399.897C823.35 400.297 823.81 400.583 824.33 400.722C824.84 400.861 825.39 400.845 825.89 400.677L831.45 398.825C831.89 398.678 832.37 398.658 832.82 398.768C833.27 398.878 833.68 399.114 834 399.448C834.32 399.781 834.54 400.199 834.64 400.653C834.73 401.107 834.69 401.579 834.53 402.013L832.59 411.302Z" fill="black"/>
<path d="M685.78 369.32C661.17 354.06 635.64 337.835 611.022 322.575C605.931 319.42 597.742 323.484 597.67 329.472C597.518 342.274 595.425 356.468 599.353 376.055C601.469 386.629 602.412 392.096 604.55 399.347C607.422 409.095 611.129 418.578 615.629 427.69C618.524 421.985 621.904 416.54 625.73 411.414C628.96 407.087 640.64 392.096 661.65 379.984C669.3 375.585 677.39 372.011 685.78 369.32Z" fill="#333333"/>
<path d="M615.618 429.569L614.877 428.06C610.358 418.905 606.633 409.38 603.742 399.588C601.941 393.476 600.936 388.515 599.477 381.011C599.185 379.529 598.871 377.941 598.528 376.218C595.492 361.064 596.036 349.093 596.513 338.553C596.659 335.387 596.794 332.379 596.828 329.461C596.861 326.542 598.708 323.691 601.767 322.013C605.022 320.222 608.737 320.166 611.465 321.861C623.773 329.483 636.51 337.486 648.84 345.226C661.16 352.965 673.91 360.974 686.23 368.607L687.78 369.567L686.04 370.128C677.7 372.801 669.67 376.351 662.07 380.719C643.18 391.613 631.61 404.942 626.41 411.924C622.61 417.013 619.256 422.416 616.381 428.077L615.618 429.569ZM606.969 322.327C605.432 322.34 603.923 322.739 602.581 323.489C600.061 324.87 598.54 327.109 598.512 329.483C598.478 332.446 598.337 335.449 598.197 338.626C597.72 349.076 597.181 360.913 600.178 375.892C600.521 377.615 600.835 379.198 601.133 380.685C602.654 388.408 603.574 393.077 605.359 399.111C608.063 408.276 611.505 417.206 615.652 425.815C618.396 420.61 621.541 415.626 625.06 410.908C630.35 403.825 642.07 390.299 661.23 379.254C668.41 375.128 675.97 371.722 683.82 369.084C671.98 361.738 659.77 354.071 647.95 346.635C635.6 338.895 622.892 330.92 610.589 323.27C609.493 322.626 608.24 322.3 606.969 322.327Z" fill="#191818"/>
<path d="M597.669 328.349C597.669 328.349 639.98 365.357 645.21 375.05C645.52 375.611 646.83 378.204 645.86 379.377C644.01 381.622 636.09 375.965 632.47 378.861C632.1 379.16 631.79 379.525 631.56 379.938C631.15 380.704 630.97 381.572 631.05 382.436C631.12 383.301 631.44 384.125 631.98 384.81C633.19 386.42 634.78 389.002 634.63 391.455C634.63 392.184 634.41 392.895 633.99 393.492C632.9 394.817 630.89 394.828 630.33 394.828C626.66 394.828 624.67 391.286 624.58 391.124C624.1 390.736 623.5 390.531 622.884 390.544C622.268 390.558 621.676 390.789 621.214 391.197C620.921 391.504 620.736 391.898 620.686 392.319C620.556 393.29 620.716 394.279 621.146 395.159C622.364 397.623 620.939 405.57 620.108 409.151C618.854 414.493 616.771 419.606 613.934 424.304C608.883 413.27 602.064 395.681 598.781 374.354C596.998 362.706 596.342 350.914 596.822 339.141C597.035 334.747 597.389 331.043 597.669 328.349Z" fill="#F3D2C9"/>
<path d="M613.946 425.164H613.901C613.748 425.156 613.599 425.105 613.472 425.018C613.346 424.931 613.246 424.81 613.183 424.67C605.821 408.727 600.695 391.845 597.951 374.5C596.159 362.805 595.499 350.964 595.981 339.142C596.149 335.522 596.43 331.846 596.822 328.276C596.836 328.122 596.892 327.974 596.985 327.849C597.077 327.724 597.202 327.627 597.346 327.569C597.49 327.511 597.648 327.494 597.801 327.52C597.954 327.545 598.097 327.613 598.214 327.715C599.943 329.23 640.69 364.937 645.92 374.652C646.48 375.729 647.73 378.412 646.48 379.916C645.24 381.42 642.96 380.668 640.27 379.877C637.59 379.086 634.59 378.193 632.98 379.518C632.69 379.749 632.45 380.033 632.28 380.354C631.95 380.974 631.81 381.675 631.88 382.372C631.94 383.069 632.2 383.732 632.64 384.283C634 386.096 635.59 388.823 635.44 391.478C635.43 392.386 635.14 393.269 634.61 394.004C633.72 395.087 632.27 395.642 630.31 395.648C626.53 395.648 624.37 392.426 623.914 391.658C623.594 391.449 623.216 391.349 622.836 391.371C622.455 391.393 622.091 391.537 621.798 391.781C621.636 391.969 621.536 392.202 621.512 392.449C621.411 393.248 621.545 394.06 621.899 394.784C623.487 397.994 621.192 408.186 620.922 409.337C619.65 414.764 617.534 419.959 614.653 424.732C614.582 424.858 614.48 424.964 614.356 425.04C614.232 425.116 614.091 425.158 613.946 425.164ZM598.338 330.055C598.035 333.092 597.816 336.162 597.676 339.198C597.194 350.915 597.846 362.651 599.623 374.242C602.249 390.903 607.099 407.137 614.041 422.509C616.423 418.279 618.194 413.733 619.3 409.006C620.294 404.723 621.411 397.607 620.423 395.575C619.899 394.535 619.703 393.361 619.862 392.208C619.937 391.601 620.209 391.035 620.636 390.597C621.251 390.049 622.04 389.738 622.863 389.721C623.687 389.703 624.49 389.98 625.13 390.501C625.2 390.563 625.27 390.642 625.31 390.732C625.31 390.765 627.11 393.992 630.31 393.992C631.75 393.992 632.76 393.644 633.31 392.965C633.62 392.506 633.78 391.966 633.77 391.416C633.88 389.267 632.48 386.926 631.28 385.321C630.65 384.507 630.27 383.525 630.18 382.496C630.1 381.467 630.31 380.436 630.81 379.529C631.09 379.023 631.47 378.575 631.93 378.21C634.25 376.358 637.71 377.374 640.76 378.272C642.52 378.788 644.69 379.428 645.21 378.833C645.58 378.379 645.26 376.925 644.46 375.466C639.86 366.918 605.314 336.212 598.338 330.055Z" fill="black"/>
<path d="M672.03 457.996C679.01 457.996 684.66 452.342 684.66 445.368C684.66 438.394 679.01 432.74 672.03 432.74C665.06 432.74 659.41 438.394 659.41 445.368C659.41 452.342 665.06 457.996 672.03 457.996Z" fill="black"/>
<path d="M672.03 458.838C669.37 458.838 666.77 458.048 664.55 456.568C662.34 455.088 660.61 452.984 659.59 450.523C658.57 448.062 658.3 445.353 658.82 442.74C659.34 440.128 660.63 437.727 662.51 435.844C664.39 433.96 666.79 432.677 669.41 432.157C672.02 431.638 674.73 431.904 677.19 432.924C679.65 433.943 681.75 435.67 683.23 437.885C684.71 440.1 685.5 442.704 685.5 445.368C685.5 448.941 684.08 452.367 681.56 454.893C679.03 457.419 675.61 458.838 672.03 458.838ZM672.03 433.582C669.7 433.582 667.42 434.273 665.49 435.568C663.55 436.864 662.04 438.704 661.15 440.858C660.25 443.012 660.02 445.381 660.47 447.668C660.93 449.954 662.05 452.054 663.7 453.702C665.35 455.351 667.45 456.473 669.73 456.928C672.02 457.383 674.39 457.149 676.54 456.257C678.7 455.365 680.54 453.855 681.83 451.916C683.13 449.978 683.82 447.699 683.82 445.368C683.82 442.242 682.58 439.245 680.37 437.034C678.16 434.824 675.16 433.582 672.03 433.582Z" fill="#191818"/>
<path d="M785.41 463.048C795.17 463.048 803.08 455.133 803.08 445.369C803.08 435.605 795.17 427.689 785.41 427.689C775.64 427.689 767.73 435.605 767.73 445.369C767.73 455.133 775.64 463.048 785.41 463.048Z" fill="#F8F59C"/>
<path d="M785.4 463.89C781.74 463.89 778.16 462.803 775.12 460.768C772.07 458.733 769.7 455.841 768.29 452.456C766.89 449.072 766.53 445.348 767.24 441.755C767.95 438.163 769.72 434.863 772.31 432.272C774.9 429.682 778.2 427.918 781.79 427.204C785.38 426.489 789.11 426.856 792.49 428.257C795.88 429.659 798.77 432.033 800.8 435.079C802.84 438.125 803.93 441.706 803.93 445.369C803.93 450.281 801.97 454.992 798.5 458.465C795.03 461.938 790.32 463.89 785.4 463.89ZM785.4 428.531C782.07 428.531 778.82 429.519 776.05 431.369C773.28 433.219 771.12 435.849 769.85 438.925C768.57 442.002 768.24 445.387 768.89 448.653C769.54 451.92 771.14 454.92 773.5 457.274C775.85 459.629 778.85 461.233 782.12 461.882C785.39 462.532 788.77 462.199 791.85 460.924C794.92 459.65 797.55 457.492 799.4 454.723C801.25 451.954 802.24 448.699 802.24 445.369C802.24 440.903 800.47 436.621 797.31 433.463C794.15 430.305 789.87 428.531 785.4 428.531Z" fill="#191818"/>
<path d="M785.41 457.996C792.38 457.996 798.03 452.342 798.03 445.368C798.03 438.394 792.38 432.74 785.41 432.74C778.43 432.74 772.78 438.394 772.78 445.368C772.78 452.342 778.43 457.996 785.41 457.996Z" fill="black"/>
<path d="M785.41 458.838C782.74 458.838 780.14 458.048 777.92 456.568C775.71 455.088 773.98 452.984 772.96 450.523C771.94 448.062 771.67 445.353 772.19 442.74C772.71 440.128 774 437.727 775.88 435.844C777.76 433.96 780.16 432.677 782.78 432.157C785.39 431.638 788.1 431.904 790.56 432.924C793.02 433.943 795.13 435.67 796.61 437.885C798.09 440.1 798.88 442.704 798.88 445.368C798.88 448.941 797.46 452.367 794.93 454.893C792.4 457.419 788.98 458.838 785.41 458.838ZM785.41 433.582C783.07 433.582 780.8 434.273 778.86 435.568C776.92 436.864 775.41 438.704 774.52 440.858C773.62 443.012 773.39 445.381 773.85 447.668C774.3 449.954 775.42 452.054 777.07 453.702C778.72 455.351 780.82 456.473 783.11 456.928C785.39 457.383 787.76 457.149 789.92 456.257C792.07 455.365 793.91 453.855 795.21 451.916C796.5 449.978 797.19 447.699 797.19 445.368C797.19 442.242 795.95 439.245 793.74 437.034C791.53 434.824 788.53 433.582 785.41 433.582Z" fill="#191818"/>
<path d="M722.69 448.809L728.44 449.578L733.71 448.826C733.94 448.793 734.17 448.826 734.38 448.921C734.59 449.016 734.77 449.17 734.89 449.363C735.01 449.556 735.08 449.781 735.08 450.011C735.08 450.242 735.02 450.467 734.89 450.661L729.79 458.675C729.64 458.902 729.44 459.089 729.2 459.22C728.96 459.351 728.69 459.422 728.42 459.426C728.14 459.43 727.87 459.369 727.63 459.246C727.39 459.123 727.18 458.942 727.02 458.72L721.54 450.678C721.41 450.485 721.34 450.259 721.33 450.028C721.33 449.796 721.39 449.568 721.51 449.371C721.63 449.174 721.81 449.016 722.02 448.916C722.23 448.816 722.46 448.779 722.69 448.809Z" fill="#F3D2C9"/>
<path d="M728.39 460.287C727.98 460.285 727.58 460.181 727.22 459.985C726.85 459.789 726.55 459.507 726.32 459.164L720.84 451.127C720.62 450.801 720.49 450.418 720.48 450.023C720.48 449.628 720.58 449.239 720.79 448.903C721 448.567 721.3 448.298 721.65 448.129C722.01 447.96 722.41 447.898 722.8 447.951L728.41 448.703L733.57 447.962C733.96 447.908 734.35 447.966 734.7 448.129C735.06 448.292 735.36 448.552 735.57 448.88C735.78 449.208 735.9 449.589 735.9 449.979C735.9 450.37 735.79 450.752 735.58 451.082L730.48 459.097C730.26 459.447 729.96 459.737 729.59 459.94C729.23 460.143 728.83 460.252 728.41 460.259L728.39 460.287ZM722.52 449.623C722.46 449.623 722.4 449.639 722.35 449.669C722.3 449.7 722.26 449.744 722.23 449.797C722.19 449.855 722.16 449.923 722.16 449.994C722.16 450.064 722.19 450.133 722.23 450.19L727.71 458.227C727.79 458.337 727.89 458.428 728.01 458.49C728.13 458.552 728.26 458.585 728.4 458.586C728.54 458.586 728.67 458.55 728.79 458.483C728.91 458.417 729.01 458.321 729.08 458.205L734.18 450.19C734.22 450.134 734.24 450.066 734.24 449.996C734.24 449.927 734.22 449.859 734.18 449.803C734.14 449.744 734.09 449.696 734.02 449.667C733.96 449.638 733.89 449.629 733.82 449.64L728.44 450.409L722.57 449.629L722.52 449.623Z" fill="black"/>
<path d="M720.05 469.031C719.49 469.031 718.88 468.997 718.25 468.936C718.03 468.913 717.82 468.803 717.68 468.629C717.54 468.456 717.47 468.233 717.49 468.01C717.52 467.786 717.63 467.581 717.8 467.439C717.97 467.297 718.2 467.23 718.42 467.252C721.71 467.577 724.12 466.96 725.58 465.411C727.72 463.166 727.19 459.602 727.18 459.563C727.15 459.34 727.2 459.112 727.34 458.93C727.47 458.748 727.67 458.626 727.89 458.592C728.12 458.558 728.35 458.614 728.53 458.747C728.71 458.881 728.83 459.081 728.87 459.305C728.87 459.479 729.53 463.71 726.83 466.567C725.27 468.212 723 469.031 720.05 469.031Z" fill="black"/>
<path d="M736.46 469.592C733.52 469.592 731.26 468.773 729.73 467.139C727.03 464.283 727.66 460.051 727.69 459.877C727.73 459.654 727.85 459.453 728.03 459.319C728.21 459.186 728.44 459.13 728.66 459.164C728.89 459.198 729.09 459.32 729.22 459.502C729.35 459.684 729.41 459.912 729.38 460.135C729.38 460.197 728.86 463.755 730.98 465.994C732.45 467.538 734.85 468.15 738.14 467.824C738.36 467.802 738.58 467.869 738.76 468.011C738.93 468.153 739.04 468.359 739.06 468.582C739.09 468.805 739.02 469.028 738.88 469.202C738.73 469.375 738.53 469.486 738.31 469.508C737.64 469.558 737.04 469.592 736.46 469.592Z" fill="black"/>
<path d="M845.74 452.103C845.54 452.101 845.35 452.028 845.19 451.897C845.04 451.765 844.94 451.584 844.91 451.386C844.88 451.188 844.93 450.986 845.03 450.816C845.14 450.646 845.3 450.519 845.49 450.458L885.06 438.392C885.27 438.344 885.49 438.376 885.67 438.483C885.85 438.589 885.99 438.761 886.05 438.964C886.12 439.168 886.1 439.387 886.01 439.579C885.91 439.771 885.75 439.92 885.55 439.997L845.99 452.064C845.91 452.09 845.82 452.103 845.74 452.103Z" fill="black"/>
<path d="M884.46 466.696H884.34L847.01 460.803C846.79 460.769 846.59 460.647 846.46 460.465C846.32 460.283 846.27 460.055 846.3 459.832C846.33 459.609 846.46 459.408 846.64 459.275C846.82 459.141 847.05 459.085 847.27 459.119L884.59 465.012C884.82 465.029 885.02 465.134 885.17 465.304C885.32 465.474 885.39 465.695 885.37 465.919C885.35 466.142 885.25 466.349 885.08 466.495C884.91 466.641 884.69 466.713 884.46 466.696Z" fill="black"/>
<path d="M575.781 468.379C575.558 468.404 575.334 468.339 575.159 468.198C574.984 468.058 574.871 467.853 574.847 467.63C574.822 467.407 574.888 467.183 575.028 467.008C575.169 466.832 575.373 466.72 575.596 466.696L609.551 459.119C609.763 459.085 609.979 459.133 610.156 459.253C610.333 459.373 610.457 459.556 610.504 459.765C610.552 459.973 610.518 460.192 610.409 460.376C610.301 460.561 610.127 460.697 609.922 460.758L575.967 468.334C575.907 468.358 575.845 468.373 575.781 468.379Z" fill="black"/>
<path d="M611.139 451.542H611.01L573.687 445.649C573.577 445.632 573.471 445.593 573.375 445.535C573.279 445.477 573.196 445.401 573.13 445.311C573.064 445.221 573.016 445.118 572.989 445.01C572.963 444.901 572.958 444.788 572.975 444.678C572.992 444.567 573.03 444.461 573.088 444.365C573.146 444.27 573.222 444.186 573.313 444.12C573.403 444.054 573.505 444.006 573.614 443.98C573.722 443.953 573.835 443.948 573.946 443.965L611.268 449.858C611.492 449.875 611.699 449.98 611.845 450.15C611.99 450.32 612.063 450.541 612.046 450.764C612.029 450.988 611.923 451.195 611.753 451.341C611.583 451.487 611.363 451.559 611.139 451.542Z" fill="black"/>
<path d="M190.93 115.919C215.945 127.351 244.417 153.023 278.321 185.783C330.399 236.104 362.957 317.355 373.171 347.982C369.933 349.486 356.205 324.028 352.967 325.532C342.151 295.932 320.824 247.603 274.954 200.375C237.463 161.773 204.798 133.211 178.42 120.678L190.93 115.919Z" fill="#8BB174"/>
<path d="M372.852 348.907C370.854 348.907 368.037 345.237 362.385 337.256C359.298 332.901 354.64 326.323 353.282 326.323L352.451 326.704L352.187 325.829C334.564 277.562 309.106 236.748 274.36 200.969C232.828 158.185 202.206 132.918 178.073 121.446L176.288 120.605L190.97 114.992L191.296 115.138C215.255 126.094 242.588 150.059 278.917 185.164C301.558 207.053 322.846 236.883 342.203 273.869C359.983 307.897 370.344 336.852 373.969 347.712L374.211 348.425L373.526 348.739C373.317 348.845 373.087 348.903 372.852 348.907ZM353.534 324.645C355.521 324.937 358.333 328.624 363.755 336.279C366.28 339.854 369.855 344.906 371.814 346.589C366.202 330.167 333.734 240.514 277.738 186.377C241.695 151.568 214.57 127.76 190.903 116.839L180.542 120.767C204.586 132.694 234.854 157.877 275.561 199.785C310.33 235.598 335.85 276.434 353.534 324.645Z" fill="black"/>
<path d="M329.985 366.323C288.071 330.965 229.376 288.036 209.8 280.515C159.412 261.152 114.681 252.705 85.715 252.419C88.828 249.224 91.947 246.032 95.071 242.844C122.572 242.721 162.201 250.359 206.758 265.855C224.628 272.079 293.033 316.637 342.018 361.631L329.985 366.323Z" fill="#8BB174"/>
<path d="M329.826 367.288L329.439 366.968C288.732 332.603 229.459 288.955 209.496 281.3C164.669 264.086 118.367 253.58 85.7019 253.26H83.7319L94.7099 242.035H95.709C124.333 242.035 164.855 250.42 207.004 265.097C224.588 271.22 292.313 314.901 342.55 361.069L343.543 361.984L329.826 367.288ZM87.6839 251.604C120.404 252.3 165.955 262.767 210.13 279.728C230.189 287.434 289.372 330.959 330.174 365.357L340.445 361.339C291.286 316.439 223.392 272.539 206.476 266.651C164.507 252.059 124.198 243.685 95.7369 243.685H95.4509L87.6839 251.604Z" fill="black"/>
<path d="M373.755 349.003C363.788 335.589 340.328 294.484 326.656 281.222C299.353 254.792 267.753 233.198 233.209 217.363L220.688 222.1C258.995 240.368 293.733 265.329 323.266 295.808C333.2 306.073 353.82 343.946 361.666 354.178L373.755 349.003Z" fill="#8BB174"/>
<path d="M361.397 355.222L360.999 354.705C357.85 350.592 352.816 342.319 346.968 332.744C338.336 318.573 328.559 302.51 322.644 296.398C293.2 265.972 258.542 241.071 220.312 222.875L218.55 221.994L233.238 216.438L233.563 216.583C268.206 232.445 299.888 254.102 327.246 280.621C336.299 289.399 349.662 310.367 360.398 327.205C366.106 336.184 371.062 343.901 374.43 348.476L375.069 349.329L361.397 355.222ZM222.826 222.207C260.536 240.416 294.735 265.139 323.85 295.236C329.895 301.483 339.728 317.63 348.399 331.88C353.736 340.641 358.788 348.936 361.925 353.168L372.426 348.678C369.03 343.986 364.338 336.617 358.956 328.164C348.264 311.383 334.963 290.499 326.05 281.856C298.92 255.551 267.514 234.052 233.176 218.278L222.826 222.207Z" fill="black"/>
<path d="M741.91 656.677L760.99 699.33C751.47 700.41 741.84 700.22 732.37 698.77C732.37 698.77 715.98 696.87 705.1 688.67C697.53 682.988 697.17 678.986 697.08 677.791C696.64 672.324 700.24 668.457 701.64 667.127L702.06 666.745C707.11 662.334 716.09 661.734 716.65 661.694C722.4 661.341 730.34 659.853 741.91 656.677Z" fill="#333333"/>
<path d="M748.72 700.86C743.2 700.87 737.69 700.44 732.24 699.6C731.59 699.53 715.54 697.59 704.59 689.37C699.34 685.441 696.53 681.568 696.24 677.887C695.8 672.398 699.05 668.43 701.06 666.549L701.5 666.145C706.49 661.779 714.97 660.999 716.59 660.887C722.66 660.477 730.87 658.832 741.68 655.835L742.38 655.645L762.23 699.98L761.11 700.11C757 700.59 752.86 700.84 748.72 700.86ZM741.42 657.682C730.84 660.555 722.74 662.172 716.69 662.57C715.74 662.632 707.27 663.317 702.6 667.414C702.43 667.565 702.27 667.711 702.22 667.762C700.43 669.445 697.51 672.965 697.9 677.752C698.15 680.929 700.74 684.386 705.58 688.02C716.16 695.96 732.28 697.92 732.45 697.93C741.48 699.32 750.65 699.55 759.73 698.62L741.42 657.682Z" fill="#191818"/>
<path d="M570.045 610.504L587.006 560.143C575.485 559.974 564.043 562.072 553.331 566.317C545.62 569.536 538.432 573.887 532.004 579.226C531.443 579.703 523.585 586.454 523.305 592.959C523.305 593.313 523.305 593.644 523.305 593.666C523.434 599.15 527.419 602.646 528.951 603.769L529.411 604.105C534.109 607.428 539.839 607.058 548.286 607.265C553.051 607.383 555.43 607.445 558.388 607.826C562.349 608.35 566.252 609.247 570.045 610.504Z" fill="#333333"/>
<path d="M570.045 611.351C569.955 611.349 569.866 611.334 569.781 611.306C566.038 610.069 562.185 609.191 558.276 608.685C555.357 608.303 552.983 608.247 548.257 608.123C547.197 608.123 546.175 608.079 545.193 608.062C538.25 607.949 533.233 607.865 528.917 604.812L528.434 604.453C526.262 602.769 522.592 599.188 522.457 593.683C522.457 593.683 522.457 593.307 522.457 592.914C522.76 586.1 530.567 579.326 531.437 578.574C537.961 573.187 545.244 568.792 553.05 565.531C563.864 561.253 575.411 559.136 587.039 559.301C587.173 559.302 587.305 559.335 587.424 559.398C587.542 559.46 587.644 559.55 587.721 559.66C587.798 559.77 587.847 559.896 587.866 560.029C587.884 560.162 587.87 560.297 587.825 560.423L570.864 610.784C570.806 610.953 570.695 611.1 570.547 611.201C570.4 611.303 570.224 611.356 570.045 611.351ZM585.76 560.973C574.759 560.973 563.858 563.05 553.629 567.097C546.008 570.294 538.901 574.598 532.537 579.871C532.206 580.151 524.405 586.791 524.118 592.992C524.118 593.301 524.118 593.593 524.118 593.632C524.236 598.448 527.486 601.647 529.433 603.123L529.865 603.443C533.76 606.193 538.559 606.249 545.199 606.384C546.186 606.384 547.208 606.417 548.28 606.445C553.062 606.563 555.464 606.625 558.466 607.007C562.205 607.494 565.893 608.309 569.489 609.442L585.816 560.968L585.76 560.973Z" fill="#191818"/>
<path d="M75.6011 82.5177L59.8581 73.9307C55.9331 71.7897 52.7291 68.5347 50.6521 64.5747C48.5741 60.6157 47.716 56.1297 48.184 51.6837L49.503 39.2187C50.031 34.2217 51.6381 29.3997 54.2121 25.0857C56.7871 20.7717 60.2681 17.0677 64.4151 14.2317C66.8201 12.5877 69.616 11.6067 72.521 11.3887C75.426 11.1697 78.337 11.7207 80.961 12.9857C82.475 13.6907 84.0261 14.3127 85.6081 14.8487C103.891 21.3107 120.522 31.7307 134.313 45.3637L109.915 89.6067L75.6011 82.5177Z" fill="#DA4E22"/>
<path d="M110.347 90.5561L75.309 83.3162L75.197 83.2541L59.454 74.6731C55.381 72.4551 52.059 69.0771 49.907 64.9691C47.756 60.8601 46.873 56.2051 47.37 51.5951L48.689 39.1291C49.226 34.0111 50.871 29.0712 53.508 24.6522C56.145 20.2332 59.711 16.4401 63.961 13.5371C66.491 11.8111 69.431 10.7821 72.485 10.5521C75.539 10.3221 78.599 10.9011 81.359 12.2291C82.847 12.9191 84.37 13.5301 85.922 14.0591C104.321 20.5561 121.055 31.0441 134.924 44.7701L135.379 45.2132L110.347 90.5561ZM75.893 81.7161L109.477 88.6591L133.269 45.5161C119.658 32.1831 103.295 21.9881 85.327 15.6471C83.717 15.1081 82.138 14.4821 80.596 13.7721C78.103 12.5711 75.339 12.0491 72.58 12.2571C69.821 12.4641 67.165 13.3961 64.881 14.9571C60.832 17.7211 57.433 21.3341 54.92 25.5441C52.407 29.7541 50.84 34.4611 50.328 39.3371L49.009 51.8021C48.549 56.0831 49.37 60.4041 51.368 64.2181C53.366 68.0321 56.452 71.1672 60.234 73.2252L75.893 81.7161Z" fill="black"/>
<path d="M90.435 67.6518L90.047 67.6797C85.114 68.0387 80.428 69.9808 76.687 73.2168C72.946 76.4528 70.349 80.8088 69.281 85.6388L67.777 92.4417C66.22 99.4867 67.248 106.858 70.674 113.208C74.1 119.558 79.695 124.464 86.439 127.031L132.736 144.654L139.863 94.0297L107.873 72.3158C102.752 68.8398 96.607 67.1958 90.435 67.6518Z" fill="#DA4E22"/>
<path d="M133.426 145.817L86.141 127.823C79.209 125.184 73.456 120.14 69.933 113.612C66.41 107.084 65.352 99.5059 66.953 92.2629L68.457 85.4659C69.543 80.4479 72.23 75.9189 76.113 72.5609C79.995 69.2019 84.864 67.1959 89.986 66.8439L90.373 66.8159C96.729 66.3639 103.054 68.0569 108.333 71.6259L140.762 93.6379L133.426 145.817ZM90.497 68.4939L90.109 68.5219C85.349 68.8489 80.824 70.7129 77.215 73.8349C73.606 76.9569 71.11 81.1669 70.101 85.8309L68.597 92.6269C67.118 99.4729 68.133 106.622 71.459 112.786C74.785 118.95 80.203 123.723 86.736 126.246L132.051 143.493L138.955 94.4459L107.424 73.0229C102.457 69.6639 96.506 68.0689 90.525 68.4939H90.497Z" fill="black"/>
<path d="M172.528 36.6822L154.495 12.7792C151.054 8.21121 146.383 4.71722 141.029 2.70722C135.675 0.696223 129.859 0.251209 124.261 1.42521L118.351 2.66523C115.492 3.26123 112.825 4.55323 110.586 6.42823C108.348 8.30323 106.607 10.7032 105.52 13.4132C104.432 16.1232 104.031 19.0592 104.353 21.9622C104.674 24.8642 105.708 27.6422 107.362 30.0482L122.516 51.5442L170.002 68.7242L172.528 36.6822Z" fill="#DA4E22"/>
<path d="M170.754 69.8971L121.982 52.2511L106.672 30.5371C104.945 28.0171 103.867 25.1091 103.534 22.0721C103.2 19.0361 103.622 15.9631 104.76 13.1291C105.899 10.2941 107.72 7.7841 110.061 5.8221C112.403 3.8591 115.192 2.50511 118.183 1.88011L124.098 0.645096C129.841 -0.543904 135.803 -0.0828868 141.294 1.97511C146.786 4.03311 151.582 7.60409 155.129 12.2741L173.353 36.4071L173.325 36.7271L170.754 69.8971ZM123.049 50.8481L169.245 67.5621L171.636 36.9631L153.799 13.3121C150.444 8.89112 145.906 5.5091 140.71 3.5591C135.513 1.6081 129.871 1.16811 124.435 2.28911L118.519 3.53011C115.802 4.09911 113.266 5.32911 111.138 7.11211C109.009 8.89611 107.354 11.1771 106.318 13.7531C105.282 16.3291 104.898 19.1211 105.199 21.8821C105.501 24.6421 106.479 27.2851 108.047 29.5771L123.049 50.8481Z" fill="black"/>
<path d="M133.504 113.847C153.692 113.847 170.058 97.4812 170.058 77.2932C170.058 57.1052 153.692 40.7393 133.504 40.7393C113.316 40.7393 96.95 57.1052 96.95 77.2932C96.95 97.4812 113.316 113.847 133.504 113.847Z" fill="#F8F59C"/>
<path d="M133.487 114.673C127.403 114.67 121.412 113.184 116.034 110.342C110.655 107.5 106.051 103.389 102.621 98.365C99.191 93.341 97.038 87.555 96.35 81.511C95.662 75.467 96.459 69.346 98.673 63.679C100.886 58.013 104.448 52.972 109.051 48.994C113.654 45.016 119.157 42.221 125.085 40.852C131.012 39.483 137.184 39.58 143.065 41.137C148.946 42.693 154.358 45.66 158.832 49.782C164.372 54.88 168.242 61.532 169.938 68.867C171.634 76.201 171.076 83.877 168.337 90.89C165.598 97.902 160.806 103.924 154.588 108.167C148.37 112.411 141.015 114.678 133.487 114.673ZM133.515 41.599C125.193 41.602 117.134 44.513 110.731 49.827C104.328 55.142 99.982 62.527 98.447 70.706C96.911 78.885 98.281 87.343 102.32 94.619C106.359 101.894 112.813 107.53 120.566 110.552C128.32 113.574 136.886 113.792 144.783 111.168C152.68 108.545 159.412 103.244 163.816 96.183C168.22 89.122 170.018 80.744 168.9 72.498C167.782 64.252 163.818 56.656 157.693 51.022C151.107 44.95 142.473 41.585 133.515 41.599Z" fill="#191818"/>
<path d="M141.855 36.6711L140.07 50.3821C139.358 55.8321 140.66 61.0011 143.719 64.8741L168.222 95.8991L182.59 133.385C185.558 128.316 188.098 123.009 190.184 117.518C190.184 117.518 195.605 102.264 194.983 85.1851C193.86 53.4861 171.494 28.2691 167.757 24.1561C166.163 22.2291 164.003 20.8551 161.583 20.2271C156.913 19.1041 153.035 21.5791 151.02 22.8591C144.297 27.1301 142.355 34.4541 141.855 36.6711Z" fill="#DA4E22"/>
<path d="M182.417 135.282L167.477 96.3213L143.057 65.4083C139.847 61.3443 138.494 55.9733 139.235 50.2543L141.037 36.4703C141.845 32.8613 144.163 26.2053 150.578 22.1303C152.587 20.8563 156.751 18.2013 161.803 19.3913C164.399 20.0553 166.716 21.5273 168.42 23.5953C174.565 30.3583 194.753 54.8393 195.848 85.1353C196.465 102.186 191.055 117.626 191.004 117.783C188.891 123.327 186.325 128.688 183.332 133.812L182.417 135.282ZM142.687 36.8183L140.902 50.4903C140.223 55.7263 141.463 60.6483 144.376 64.3523L168.964 95.4793L169.009 95.5973L182.748 131.438C185.3 126.861 187.523 122.109 189.399 117.216C189.45 117.081 194.748 101.928 194.142 85.2253C193.064 55.4793 173.196 31.4073 167.134 24.7343C165.655 22.9353 163.643 21.6523 161.387 21.0693C157.066 20.0373 153.423 22.3493 151.47 23.5893C145.588 27.2993 143.444 33.4563 142.687 36.8183Z" fill="black"/>
<path d="M132.118 144.727L104.393 131.914C98.715 129.281 94.298 124.524 92.093 118.666C89.889 112.808 90.073 106.319 92.606 100.596L98.37 87.5869C101.59 80.3229 107.442 74.5479 114.747 71.4239C122.053 68.2999 130.271 68.0588 137.747 70.7488L170.962 82.7318C177.591 85.1298 183.191 89.7399 186.819 95.7849C190.446 101.83 191.878 108.94 190.875 115.918C189.372 123.06 185.978 129.666 181.047 135.046C168.285 148.712 150.117 147.954 146.884 147.797C141.829 147.573 136.843 146.537 132.118 144.727Z" fill="#DA4E22"/>
<path d="M148.956 148.695C148.182 148.695 147.48 148.695 146.868 148.656C141.716 148.426 136.635 147.364 131.821 145.513H131.765L104.057 132.677C98.194 129.933 93.636 125.008 91.353 118.951C89.071 112.894 89.245 106.185 91.838 100.254L97.597 87.2448C100.921 79.7998 106.932 73.8838 114.429 70.6798C121.927 67.4768 130.357 67.2208 138.034 69.9638L171.249 81.9458C178.053 84.4248 183.799 89.1648 187.527 95.3738C191.255 101.582 192.738 108.882 191.729 116.053V116.115C190.195 123.407 186.727 130.151 181.688 135.641C171.002 147.051 156.449 148.695 148.956 148.695ZM132.428 143.981C137.067 145.758 141.962 146.777 146.924 147C153.238 147.269 169.15 146.596 180.431 134.518C185.255 129.257 188.575 122.796 190.045 115.812C190.995 109.029 189.589 102.126 186.06 96.2558C182.532 90.3858 177.095 85.9048 170.659 83.5628L137.445 71.5748C130.169 68.9748 122.18 69.2168 115.075 72.2528C107.97 75.2898 102.273 80.8958 99.123 87.9518L93.359 100.967C90.944 106.492 90.783 112.743 92.91 118.386C95.037 124.029 99.285 128.617 104.747 131.173L132.428 143.981Z" fill="black"/>
<path d="M35.293 191.377L32.992 183.436C31.542 178.431 31.885 173.078 33.961 168.299C36.037 163.52 39.715 159.616 44.362 157.259C48.523 155.154 53.188 154.249 57.834 154.646C62.48 155.042 66.924 156.725 70.668 159.504C77.734 161.873 109.702 173.434 126.124 206.924C131.818 218.628 134.928 231.42 135.244 244.432C135.259 245.262 135.05 246.081 134.64 246.804C134.229 247.526 133.632 248.124 132.911 248.537C132.19 248.949 131.371 249.16 130.541 249.148C129.71 249.136 128.898 248.901 128.19 248.467L35.293 191.377Z" fill="#DA4E22"/>
<path d="M130.609 250.012C129.593 250.008 128.598 249.722 127.735 249.187L34.569 191.94L32.1781 183.684C30.6781 178.492 31.034 172.939 33.185 167.982C35.336 163.024 39.148 158.971 43.964 156.52C48.238 154.335 53.036 153.386 57.819 153.777C62.603 154.169 67.1821 155.886 71.0441 158.737C82.8301 162.699 111.51 175.226 126.86 206.543C132.629 218.348 135.771 231.263 136.07 244.399C136.105 245.383 135.87 246.358 135.389 247.217C134.908 248.076 134.2 248.787 133.342 249.271C132.512 249.753 131.569 250.008 130.609 250.012ZM36.011 190.834L128.616 247.75C129.197 248.11 129.864 248.306 130.547 248.318C131.229 248.331 131.903 248.159 132.496 247.82C133.089 247.482 133.58 246.989 133.916 246.395C134.253 245.801 134.423 245.127 134.408 244.444C134.116 231.548 131.037 218.867 125.384 207.273C110.23 176.416 81.887 164.13 70.382 160.257L70.253 160.213L70.146 160.134C66.532 157.445 62.237 155.821 57.748 155.446C53.259 155.071 48.754 155.96 44.744 158.013C40.275 160.282 36.7361 164.04 34.7391 168.637C32.7411 173.235 32.409 178.385 33.8 183.201L36.011 190.834Z" fill="black"/>
<path d="M9.13797 269.278L18.747 276.434C21.612 278.561 24.703 280.368 27.962 281.822C31.872 283.546 35.89 285.014 39.99 286.217C48.863 288.821 70.751 295.23 95.092 286.273C113.759 279.403 125.36 266.629 131.411 258.289C131.828 257.732 132.089 257.075 132.169 256.383C132.248 255.692 132.143 254.992 131.863 254.355C131.583 253.718 131.139 253.167 130.577 252.758C130.014 252.348 129.353 252.096 128.66 252.026L22.978 240.043C19.243 239.62 15.467 240.348 12.156 242.13C8.84598 243.913 6.15997 246.665 4.45697 250.017C2.84197 253.264 2.42499 256.977 3.28199 260.502C4.13799 264.026 6.21197 267.135 9.13797 269.278Z" fill="#DA4E22"/>
<path d="M68.782 291.728C55.874 291.728 45.474 288.675 39.766 287.002C35.63 285.793 31.578 284.312 27.637 282.569C24.319 281.091 21.174 279.252 18.259 277.085L8.64496 269.952C5.55096 267.697 3.35897 264.417 2.45697 260.696C1.55597 256.976 2.00396 253.056 3.72296 249.635C5.51296 246.139 8.32298 243.27 11.781 241.407C15.239 239.545 19.182 238.778 23.086 239.207L128.751 251.178C129.588 251.268 130.386 251.577 131.066 252.073C131.746 252.569 132.283 253.235 132.624 254.004C132.966 254.773 133.098 255.619 133.01 256.456C132.921 257.293 132.613 258.091 132.118 258.772C125.451 267.965 113.67 280.329 95.408 287.053C86.879 290.175 77.864 291.758 68.782 291.728ZM9.63797 268.577L19.264 275.71C22.075 277.805 25.112 279.58 28.317 281.003C32.189 282.733 36.171 284.206 40.237 285.414C49.363 288.091 70.735 294.349 94.818 285.487C112.677 278.915 124.211 266.803 130.738 257.801C131.062 257.359 131.264 256.839 131.322 256.294C131.38 255.749 131.293 255.198 131.069 254.697C130.853 254.198 130.507 253.765 130.068 253.444C129.629 253.122 129.113 252.923 128.571 252.868L22.884 240.879C19.318 240.489 15.719 241.193 12.563 242.897C9.40696 244.601 6.84497 247.225 5.21597 250.421C3.68997 253.482 3.29696 256.984 4.10596 260.308C4.91596 263.631 6.87597 266.56 9.63797 268.577Z" fill="black"/>
<path d="M1.426 212.453C2.626 217.481 4.89801 222.19 8.08701 226.259C11.276 230.327 15.306 233.659 19.902 236.025L52.129 252.61C54.29 253.457 57.45 254.636 61.317 255.876C69.55 258.552 78 260.505 86.573 261.713C101.878 263.531 118.765 258.705 128.351 255.309C129.276 254.981 130.127 254.474 130.855 253.817C131.583 253.159 132.175 252.365 132.596 251.478C133.016 250.592 133.258 249.631 133.307 248.652C133.356 247.672 133.211 246.692 132.881 245.768C127.145 229.89 118.692 220.748 113.928 216.325C105.127 208.159 94.447 202.709 85.91 198.365C80.506 195.606 74.963 193.128 69.303 190.94L41.858 183.358C32.78 180.866 23.086 182.043 14.868 186.635L12.112 188.173C7.934 190.509 4.631 194.142 2.702 198.523C0.773997 202.904 0.325996 207.794 1.426 212.453Z" fill="#DA4E22"/>
<path d="M93.668 262.964C91.273 262.971 88.88 262.836 86.501 262.56C81.281 261.937 71.482 260.029 61.059 256.69C57.95 255.691 54.841 254.585 51.821 253.406L51.743 253.373L19.516 236.782C14.81 234.362 10.684 230.952 7.42095 226.786C4.15795 222.62 1.83597 217.797 0.612967 212.649C-0.530033 207.806 -0.0660493 202.722 1.93395 198.166C3.93495 193.61 7.36397 189.828 11.704 187.393L14.459 185.855C22.875 181.134 32.818 179.939 42.112 182.533L69.613 190.137C75.3 192.338 80.8709 194.828 86.3039 197.596C94.9139 201.991 105.622 207.452 114.507 215.696C122.925 223.486 129.357 233.505 133.679 245.47C134.048 246.499 134.21 247.591 134.155 248.683C134.101 249.775 133.832 250.845 133.362 251.833C132.893 252.82 132.233 253.705 131.42 254.436C130.608 255.168 129.659 255.731 128.627 256.095C119.378 259.406 106.391 262.964 93.668 262.964ZM52.4719 251.852C55.4469 253.019 58.511 254.097 61.576 255.084C71.88 258.39 81.55 260.276 86.703 260.888C101.228 262.611 117.229 258.379 128.1 254.523C128.921 254.233 129.677 253.784 130.324 253.201C130.97 252.619 131.496 251.914 131.869 251.127C132.243 250.341 132.457 249.488 132.5 248.618C132.542 247.749 132.413 246.879 132.118 246.06C127.887 234.341 121.584 224.553 113.384 216.942C104.674 208.86 94.077 203.472 85.563 199.112C80.194 196.375 74.688 193.913 69.068 191.737L41.663 184.166C32.796 181.698 23.313 182.838 15.284 187.337L12.534 188.875C8.51296 191.131 5.33595 194.634 3.48095 198.854C1.62595 203.075 1.19497 207.785 2.25197 212.273C3.42197 217.182 5.63996 221.78 8.75396 225.752C11.867 229.724 15.8029 232.975 20.2909 235.284L52.4719 251.852Z" fill="black"/>
<path d="M206.645 168.608C205.811 168.593 204.983 168.762 204.221 169.104C203.459 169.445 202.782 169.95 202.237 170.583C201.693 171.216 201.295 171.961 201.071 172.765C200.847 173.57 200.804 174.414 200.943 175.237C203.188 188.527 208.902 217.846 216.849 225.255C227.215 234.919 243.873 290.567 290.203 278.831C322.015 270.771 312.238 237.568 302.977 217.532C297.848 206.396 289.704 196.918 279.467 190.171C269.297 183.532 258.234 178.373 246.612 174.849C233.644 170.924 220.193 168.823 206.645 168.608Z" fill="#DA4E22"/>
<path d="M277.866 281.283C249.686 281.283 234.241 254.848 224.548 238.236C221.344 232.747 218.577 228.004 216.287 225.888C208.379 218.519 202.767 191.091 200.123 175.376C199.962 174.431 200.011 173.462 200.268 172.537C200.524 171.613 200.982 170.757 201.607 170.03C202.233 169.303 203.011 168.723 203.887 168.332C204.763 167.941 205.714 167.747 206.673 167.766C220.304 167.978 233.84 170.094 246.886 174.052C258.578 177.599 269.706 182.79 279.937 189.469C290.311 196.296 298.561 205.896 303.751 217.178C310.301 231.344 316.71 251.161 310.059 265.108C306.619 272.326 300.013 277.22 290.416 279.644C286.317 280.711 282.102 281.262 277.866 281.283ZM206.538 169.444C205.834 169.446 205.14 169.6 204.502 169.898C203.864 170.195 203.299 170.628 202.846 171.165C202.392 171.703 202.061 172.334 201.876 173.012C201.691 173.691 201.656 174.402 201.773 175.096C203.872 187.561 209.597 217.346 217.421 224.637C219.89 226.938 222.584 231.551 225.996 237.388C236.812 255.909 254.917 286.901 289.978 278.017C299.053 275.715 305.289 271.13 308.499 264.384C314.869 251.026 308.578 231.725 302.185 217.885C297.127 206.888 289.084 197.531 278.972 190.878C268.874 184.286 257.891 179.161 246.353 175.657C233.455 171.748 220.075 169.657 206.6 169.444H206.538Z" fill="black"/>
<path d="M392.889 340.978C394.5 340.136 377.663 176.814 330.518 113.955C283.374 51.0961 272.149 40.9932 272.149 40.9932C272.149 40.9932 271.026 88.6991 291.231 122.373C311.436 156.048 335.008 212.172 341.743 224.52C348.478 236.867 373.173 349.677 373.173 349.677L392.889 340.978Z" fill="#8BB174"/>
<path d="M372.571 350.861L372.352 349.856C372.1 348.734 347.601 237.046 341.001 224.923C338.823 220.933 334.906 212.408 329.945 201.615C319.691 179.317 304.2 145.625 290.506 122.805C270.408 89.3101 271.306 41.4531 271.306 40.9701L271.351 39.1411L272.709 40.3701C273.169 40.7791 284.534 51.2411 331.191 113.449C355.621 146.001 371.449 204.932 380.417 248.63C390.385 297.172 394.353 338.429 393.769 341.062C393.744 341.203 393.687 341.338 393.604 341.455C393.52 341.573 393.412 341.67 393.287 341.741H393.23L372.571 350.861ZM272.99 43.0301C273.068 52.4531 274.454 92.7621 291.96 121.941C305.693 144.834 321.212 178.582 331.477 200.908C336.427 211.672 340.339 220.175 342.488 224.115C348.937 235.946 371.157 336.56 373.778 348.492L392.158 340.416C392.428 335.859 388.19 294.854 378.756 248.933C369.815 205.437 354.061 146.787 329.844 114.493C291.993 63.9921 277.221 47.4751 272.99 43.0301Z" fill="black"/>
</svg>
