<svg width="24" height="26" viewBox="0 0 24 26" fill="none" xmlns="http://www.w3.org/2000/svg">
<g clip-path="url(#clip0_271_2)">
<path d="M14.8173 5.07408C14.3699 5.07408 14.0073 5.43224 14.0073 5.87408V9.53332C14.0073 9.97516 14.3699 10.3333 14.8173 10.3333H20.5381C20.9854 10.3333 21.3481 10.6915 21.3481 11.1333V14.4222C21.3481 14.864 20.9854 15.2222 20.5381 15.2222H14.8173C14.3699 15.2222 14.0073 15.5804 14.0073 16.0222V20.1259C14.0073 20.5678 14.3699 20.9259 14.8173 20.9259H22.9617C23.409 20.9259 23.7716 21.2841 23.7716 21.7259V25.2C23.7716 25.6418 23.409 26 22.9617 26H1.84846C0.224928 26 -0.588141 24.0612 0.559869 22.9272L2.01969 21.4853C6.76414 16.799 6.76414 9.201 2.01969 4.51472L0.559873 3.0728C-0.588141 1.93886 0.224927 0 1.84846 0H22.9617C23.409 0 23.7716 0.358172 23.7716 0.8V4.27408C23.7716 4.71592 23.409 5.07408 22.9617 5.07408H14.8173Z" fill="#F2F2F2"/>
</g>
<defs>
<clipPath id="clip0_271_2">
<rect width="23.7714" height="26" fill="white"/>
</clipPath>
</defs>
</svg>
