<svg width="1024" height="1024" viewBox="0 0 1024 1024" fill="none" xmlns="http://www.w3.org/2000/svg">
<path d="M1005 1004.98C992.333 1017.66 977.167 1024 959.5 1024C941.833 1024 926.667 1017.66 914 1004.98L716 806.788C636 866.179 546.667 895.875 448 895.875C387.333 895.875 329.333 884.03 274 860.34C218.667 836.65 171 804.786 131 764.747C91 724.708 59.1667 677.161 35.5 622.108C11.8333 567.054 0 508.997 0 447.937C0 386.878 11.8333 328.654 35.5 273.267C59.1667 217.879 91 170.333 131 130.628C171 90.9221 218.667 59.2245 274 35.5347C329.333 11.8449 387.333 0 448 0C508.667 0 566.667 11.8449 622 35.5347C677.333 59.2245 725 90.9221 765 130.628C805 170.333 836.833 217.879 860.5 273.267C884.167 328.654 896 386.711 896 447.437C896 546.867 866.333 636.288 807 715.699L1005 913.892C1017.67 926.572 1024 941.753 1024 959.437C1024 977.121 1017.67 992.302 1005 1004.98ZM448 128.125C390 128.125 336.5 142.306 287.5 170.667C238.5 199.028 199.667 237.899 171 287.281C142.333 336.662 128 390.214 128 447.937C128 505.66 142.333 559.213 171 608.594C199.667 657.976 238.5 696.847 287.5 725.208C336.5 753.569 390 767.75 448 767.75C506 767.75 559.5 753.569 608.5 725.208C657.5 696.847 696.333 657.976 725 608.594C753.667 559.213 768 505.66 768 447.937C768 390.214 753.667 336.662 725 287.281C696.333 237.899 657.5 199.028 608.5 170.667C559.5 142.306 506 128.125 448 128.125Z" fill="#F2F2F2"/>
</svg>
