<svg width="25" height="22" viewBox="0 0 25 22" fill="none" xmlns="http://www.w3.org/2000/svg">
<path d="M1.81897 9.58041C0.998488 9.58041 0.333344 10.2455 0.333344 11.066C0.333344 11.8865 0.998488 12.5517 1.81897 12.5517H13.704C14.5245 12.5517 15.1896 11.8865 15.1896 11.066C15.1896 10.2455 14.5245 9.58041 13.704 9.58041H1.81897Z" fill="#F2F2F2" stroke="#F2F2F2" stroke-width="0.3"/>
<path d="M0.333344 2.15229C0.333344 1.33181 0.998488 0.666664 1.81897 0.666664H22.6177C23.4382 0.666664 24.1033 1.33181 24.1033 2.15229C24.1033 2.97277 23.4382 3.63791 22.6177 3.63791H1.81897C0.998488 3.63791 0.333344 2.97277 0.333344 2.15229Z" fill="#F2F2F2" stroke="#F2F2F2" stroke-width="0.3"/>
<path d="M0.333344 19.9798C0.333344 19.1593 0.998488 18.4942 1.81897 18.4942H22.6177C23.4382 18.4942 24.1033 19.1593 24.1033 19.9798C24.1033 20.8003 23.4382 21.4654 22.6177 21.4654H1.81897C0.998488 21.4654 0.333344 20.8003 0.333344 19.9798Z" fill="#F2F2F2" stroke="#F2F2F2" stroke-width="0.3"/>
</svg>
