<svg width="252" height="252" viewBox="0 0 252 252" fill="none" xmlns="http://www.w3.org/2000/svg">
<path d="M241 136.36C238.986 158.157 230.805 178.929 217.416 196.246C204.027 213.564 185.983 226.709 165.396 234.146C144.808 241.582 122.528 243.002 101.164 238.238C79.7988 233.474 60.2326 222.724 44.7544 207.246C29.2761 191.767 18.5262 172.201 13.7623 150.836C8.99847 129.472 10.4178 107.192 17.8542 86.6042C25.2906 66.0166 38.4365 47.9726 55.7536 34.5835C73.0708 21.1945 93.843 13.0143 115.64 11C102.878 28.2645 96.7376 49.5358 98.3342 70.9452C99.9307 92.3546 109.159 112.48 124.339 127.661C139.52 142.841 159.645 152.069 181.055 153.666C202.464 155.262 223.736 149.122 241 136.36Z" stroke="#2E2E2E" stroke-width="22" stroke-linecap="round" stroke-linejoin="round"/>
</svg>
